<svg width="160" height="160" viewBox="0 0 160 160" fill="none" xmlns="http://www.w3.org/2000/svg">
<g clip-path="url(#clip0_2004_90)">
<path d="M52.5 100C70.4493 100 85 85.4493 85 67.5C85 49.5507 70.4493 35 52.5 35C34.5507 35 20 49.5507 20 67.5C20 85.4493 34.5507 100 52.5 100Z" stroke="black" stroke-width="5" stroke-linecap="round" stroke-linejoin="round"/>
<path d="M6.39404 125C11.3884 117.321 18.2215 111.011 26.2732 106.643C34.3249 102.274 43.3401 99.9866 52.5003 99.9866C61.6605 99.9866 70.6757 102.274 78.7274 106.643C86.7791 111.011 93.6122 117.321 98.6065 125" stroke="black" stroke-width="5" stroke-linecap="round" stroke-linejoin="round"/>
<path d="M107.5 100C116.66 99.9946 125.676 102.279 133.728 106.645C141.78 111.011 148.613 117.321 153.606 125" stroke="black" stroke-width="5" stroke-linecap="round" stroke-linejoin="round"/>
<path d="M95.4315 37.3125C99.8772 35.5393 104.66 34.77 109.437 35.0595C114.215 35.349 118.869 36.6901 123.069 38.9871C127.268 41.284 130.908 44.4801 133.728 48.3469C136.549 52.2138 138.481 56.6559 139.386 61.3559C140.29 66.0558 140.146 70.8977 138.963 75.5353C137.779 80.173 135.586 84.4921 132.54 88.1839C129.494 91.8758 125.67 94.8492 121.341 96.8918C117.013 98.9344 112.287 99.9958 107.5 100" stroke="black" stroke-width="5" stroke-linecap="round" stroke-linejoin="round"/>
</g>
<defs>
<clipPath id="clip0_2004_90">
<rect width="160" height="160" fill="white"/>
</clipPath>
</defs>
</svg>
